<svg width="24" height="24" viewBox="0 0 24 24" fill="none" xmlns="http://www.w3.org/2000/svg">
<path d="M13.4702 7.52983C13.6108 7.67028 13.8014 7.74917 14.0002 7.74917C14.1989 7.74917 14.3895 7.67028 14.5302 7.52983L15.2502 6.80983V16.9998C15.2502 17.1987 15.3292 17.3895 15.4698 17.5302C15.6105 17.6708 15.8012 17.7498 16.0002 17.7498C16.1991 17.7498 16.3898 17.6708 16.5305 17.5302C16.6711 17.3895 16.7502 17.1987 16.7502 16.9998V6.80983L17.4702 7.52983C17.5388 7.60352 17.6216 7.66262 17.7136 7.70361C17.8056 7.7446 17.9049 7.76664 18.0056 7.76842C18.1063 7.7702 18.2064 7.75167 18.2998 7.71395C18.3931 7.67623 18.478 7.62009 18.5492 7.54887C18.6204 7.47765 18.6766 7.39281 18.7143 7.29943C18.752 7.20604 18.7705 7.10601 18.7687 7.00531C18.767 6.9046 18.7449 6.80529 18.7039 6.71329C18.6629 6.62129 18.6038 6.53849 18.5302 6.46983L16.5302 4.46983C16.3895 4.32938 16.1989 4.25049 16.0002 4.25049C15.8014 4.25049 15.6108 4.32938 15.4702 4.46983L13.4702 6.46983C13.3297 6.61045 13.2508 6.80108 13.2508 6.99983C13.2508 7.19858 13.3297 7.3892 13.4702 7.52983ZM8.75015 17.1898L9.47015 16.4698C9.53882 16.3961 9.62162 16.337 9.71362 16.296C9.80561 16.2551 9.90493 16.233 10.0056 16.2312C10.1063 16.2295 10.2064 16.248 10.2998 16.2857C10.3931 16.3234 10.478 16.3796 10.5492 16.4508C10.6204 16.522 10.6766 16.6068 10.7143 16.7002C10.752 16.7936 10.7705 16.8936 10.7687 16.9944C10.767 17.0951 10.7449 17.1944 10.7039 17.2864C10.6629 17.3784 10.6038 17.4612 10.5302 17.5298L8.53015 19.5298C8.38953 19.6703 8.1989 19.7492 8.00015 19.7492C7.8014 19.7492 7.61078 19.6703 7.47015 19.5298L5.47015 17.5298C5.39647 17.4612 5.33736 17.3784 5.29637 17.2864C5.25538 17.1944 5.23334 17.0951 5.23156 16.9944C5.22979 16.8936 5.24831 16.7936 5.28603 16.7002C5.32375 16.6068 5.3799 16.522 5.45112 16.4508C5.52233 16.3796 5.60717 16.3234 5.70056 16.2857C5.79394 16.248 5.89397 16.2295 5.99468 16.2312C6.09538 16.233 6.19469 16.2551 6.28669 16.296C6.37869 16.337 6.46149 16.3961 6.53015 16.4698L7.25015 17.1898V6.99983C7.25015 6.80092 7.32917 6.61015 7.46982 6.4695C7.61048 6.32885 7.80124 6.24983 8.00015 6.24983C8.19907 6.24983 8.38983 6.32885 8.53048 6.4695C8.67114 6.61015 8.75015 6.80092 8.75015 6.99983V17.1898Z" fill="#FF7418"/>
</svg>
