<svg width="30" height="20" viewBox="0 0 30 20" fill="none" xmlns="http://www.w3.org/2000/svg">
<path d="M15 6C13.915 6 12.8745 6.42143 12.1073 7.17157C11.3401 7.92172 10.9091 8.93913 10.9091 10C10.9091 11.0609 11.3401 12.0783 12.1073 12.8284C12.8745 13.5786 13.915 14 15 14C16.085 14 17.1255 13.5786 17.8927 12.8284C18.6599 12.0783 19.0909 11.0609 19.0909 10C19.0909 8.93913 18.6599 7.92172 17.8927 7.17157C17.1255 6.42143 16.085 6 15 6ZM15 16.6667C13.1917 16.6667 11.4575 15.9643 10.1788 14.714C8.90016 13.4638 8.18182 11.7681 8.18182 10C8.18182 8.23189 8.90016 6.5362 10.1788 5.28595C11.4575 4.03571 13.1917 3.33333 15 3.33333C16.8083 3.33333 18.5425 4.03571 19.8212 5.28595C21.0998 6.5362 21.8182 8.23189 21.8182 10C21.8182 11.7681 21.0998 13.4638 19.8212 14.714C18.5425 15.9643 16.8083 16.6667 15 16.6667ZM15 0C8.18182 0 2.35909 4.14667 0 10C2.35909 15.8533 8.18182 20 15 20C21.8182 20 27.6409 15.8533 30 10C27.6409 4.14667 21.8182 0 15 0Z" fill="white"/>
</svg>
