<svg width="22" height="22" viewBox="0 0 22 22" fill="none" xmlns="http://www.w3.org/2000/svg">
<path d="M21.5622 6.16L15.7612 0.33C15.5423 0.11 15.3234 0 14.995 0H6.89552C6.56716 0 6.34826 0.11 6.12935 0.33L0.328358 6.16C0.109453 6.38 0 6.6 0 6.93V15.18C0 15.51 0.109453 15.73 0.328358 15.95L6.12935 21.78C6.34826 21.89 6.56716 22 6.89552 22H15.1045C15.4328 22 15.6517 21.89 15.8706 21.67L21.6716 15.84C21.8905 15.62 22 15.4 22 15.07V6.93C21.8905 6.6 21.7811 6.38 21.5622 6.16ZM10.9453 16.5C10.2886 16.5 9.85075 16.06 9.85075 15.4C9.85075 14.74 10.2886 14.3 10.9453 14.3C11.602 14.3 12.0398 14.74 12.0398 15.4C12.0398 16.06 11.602 16.5 10.9453 16.5ZM12.0398 11C12.0398 11.66 11.602 12.1 10.9453 12.1C10.2886 12.1 9.85075 11.66 9.85075 11V6.6C9.85075 5.94 10.2886 5.5 10.9453 5.5C11.602 5.5 12.0398 5.94 12.0398 6.6V11Z" fill="white"/>
</svg>
