<svg width="13" height="12" viewBox="0 0 13 12" fill="none" xmlns="http://www.w3.org/2000/svg">
<path d="M0.400391 11.3571C0.400391 11.5276 0.46812 11.6912 0.588679 11.8117C0.709238 11.9323 0.872751 12 1.04325 12H11.7575C11.928 12 12.0915 11.9323 12.2121 11.8117C12.3327 11.6912 12.4004 11.5276 12.4004 11.3571V3.85714H0.400391V11.3571ZM8.97182 4.82143C8.97182 4.79301 8.98311 4.76576 9.0032 4.74567C9.02329 4.72557 9.05055 4.71429 9.07896 4.71429H10.1504C10.1788 4.71429 10.2061 4.72557 10.2262 4.74567C10.2462 4.76576 10.2575 4.79301 10.2575 4.82143V5.89286C10.2575 5.92127 10.2462 5.94853 10.2262 5.96862C10.2061 5.98871 10.1788 6 10.1504 6H9.07896C9.05055 6 9.02329 5.98871 9.0032 5.96862C8.98311 5.94853 8.97182 5.92127 8.97182 5.89286V4.82143ZM8.97182 6.96429C8.97182 6.93587 8.98311 6.90862 9.0032 6.88852C9.02329 6.86843 9.05055 6.85714 9.07896 6.85714H10.1504C10.1788 6.85714 10.2061 6.86843 10.2262 6.88852C10.2462 6.90862 10.2575 6.93587 10.2575 6.96429V8.03571C10.2575 8.06413 10.2462 8.09138 10.2262 8.11148C10.2061 8.13157 10.1788 8.14286 10.1504 8.14286H9.07896C9.05055 8.14286 9.02329 8.13157 9.0032 8.11148C8.98311 8.09138 8.97182 8.06413 8.97182 8.03571V6.96429ZM6.82896 4.82143C6.82896 4.79301 6.84025 4.76576 6.86034 4.74567C6.88044 4.72557 6.90769 4.71429 6.9361 4.71429H8.00753C8.03595 4.71429 8.0632 4.72557 8.08329 4.74567C8.10339 4.76576 8.11468 4.79301 8.11468 4.82143V5.89286C8.11468 5.92127 8.10339 5.94853 8.08329 5.96862C8.0632 5.98871 8.03595 6 8.00753 6H6.9361C6.90769 6 6.88044 5.98871 6.86034 5.96862C6.84025 5.94853 6.82896 5.92127 6.82896 5.89286V4.82143ZM6.82896 6.96429C6.82896 6.93587 6.84025 6.90862 6.86034 6.88852C6.88044 6.86843 6.90769 6.85714 6.9361 6.85714H8.00753C8.03595 6.85714 8.0632 6.86843 8.08329 6.88852C8.10339 6.90862 8.11468 6.93587 8.11468 6.96429V8.03571C8.11468 8.06413 8.10339 8.09138 8.08329 8.11148C8.0632 8.13157 8.03595 8.14286 8.00753 8.14286H6.9361C6.90769 8.14286 6.88044 8.13157 6.86034 8.11148C6.84025 8.09138 6.82896 8.06413 6.82896 8.03571V6.96429ZM6.82896 9.10714C6.82896 9.07873 6.84025 9.05147 6.86034 9.03138C6.88044 9.01129 6.90769 9 6.9361 9H8.00753C8.03595 9 8.0632 9.01129 8.08329 9.03138C8.10339 9.05147 8.11468 9.07873 8.11468 9.10714V10.1786C8.11468 10.207 8.10339 10.2342 8.08329 10.2543C8.0632 10.2744 8.03595 10.2857 8.00753 10.2857H6.9361C6.90769 10.2857 6.88044 10.2744 6.86034 10.2543C6.84025 10.2342 6.82896 10.207 6.82896 10.1786V9.10714ZM4.6861 6.96429C4.6861 6.93587 4.69739 6.90862 4.71749 6.88852C4.73758 6.86843 4.76483 6.85714 4.79325 6.85714H5.86468C5.89309 6.85714 5.92034 6.86843 5.94044 6.88852C5.96053 6.90862 5.97182 6.93587 5.97182 6.96429V8.03571C5.97182 8.06413 5.96053 8.09138 5.94044 8.11148C5.92034 8.13157 5.89309 8.14286 5.86468 8.14286H4.79325C4.76483 8.14286 4.73758 8.13157 4.71749 8.11148C4.69739 8.09138 4.6861 8.06413 4.6861 8.03571V6.96429ZM4.6861 9.10714C4.6861 9.07873 4.69739 9.05147 4.71749 9.03138C4.73758 9.01129 4.76483 9 4.79325 9H5.86468C5.89309 9 5.92034 9.01129 5.94044 9.03138C5.96053 9.05147 5.97182 9.07873 5.97182 9.10714V10.1786C5.97182 10.207 5.96053 10.2342 5.94044 10.2543C5.92034 10.2744 5.89309 10.2857 5.86468 10.2857H4.79325C4.76483 10.2857 4.73758 10.2744 4.71749 10.2543C4.69739 10.2342 4.6861 10.207 4.6861 10.1786V9.10714ZM2.54325 6.96429C2.54325 6.93587 2.55454 6.90862 2.57463 6.88852C2.59472 6.86843 2.62197 6.85714 2.65039 6.85714H3.72182C3.75024 6.85714 3.77749 6.86843 3.79758 6.88852C3.81767 6.90862 3.82896 6.93587 3.82896 6.96429V8.03571C3.82896 8.06413 3.81767 8.09138 3.79758 8.11148C3.77749 8.13157 3.75024 8.14286 3.72182 8.14286H2.65039C2.62197 8.14286 2.59472 8.13157 2.57463 8.11148C2.55454 8.09138 2.54325 8.06413 2.54325 8.03571V6.96429ZM2.54325 9.10714C2.54325 9.07873 2.55454 9.05147 2.57463 9.03138C2.59472 9.01129 2.62197 9 2.65039 9H3.72182C3.75024 9 3.77749 9.01129 3.79758 9.03138C3.81767 9.05147 3.82896 9.07873 3.82896 9.10714V10.1786C3.82896 10.207 3.81767 10.2342 3.79758 10.2543C3.77749 10.2744 3.75024 10.2857 3.72182 10.2857H2.65039C2.62197 10.2857 2.59472 10.2744 2.57463 10.2543C2.55454 10.2342 2.54325 10.207 2.54325 10.1786V9.10714ZM11.7575 0.857143H10.2597V0H8.97396V0.857143H3.82682V0H2.5411V0.857143H1.04325C0.959148 0.856436 0.875739 0.872377 0.797828 0.904047C0.719916 0.935718 0.64904 0.982492 0.589285 1.04167C0.52953 1.10086 0.482076 1.17128 0.449656 1.24888C0.417237 1.32649 0.400494 1.40974 0.400391 1.49384V3H12.4004V1.49384C12.4003 1.40974 12.3835 1.32649 12.3511 1.24888C12.3187 1.17128 12.2713 1.10086 12.2115 1.04167C12.1517 0.982492 12.0809 0.935718 12.003 0.904047C11.925 0.872377 11.8416 0.856436 11.7575 0.857143Z" fill="white"/>
</svg>
